<svg width="31" height="31" viewBox="0 0 31 31" fill="none" xmlns="http://www.w3.org/2000/svg">
<circle cx="15.8486" cy="15.4345" r="12.6559" fill="white"/>
<path d="M15.8486 0.309692C12.8819 0.309692 9.98182 1.18943 7.51509 2.83765C5.04835 4.48587 3.12576 6.82855 1.99045 9.56944C0.855132 12.3103 0.558082 15.3263 1.13686 18.236C1.71564 21.1458 3.14425 23.8185 5.24204 25.9163C7.33983 28.0141 10.0126 29.4427 12.9223 30.0215C15.832 30.6002 18.848 30.3032 21.5889 29.1679C24.3298 28.0326 26.6725 26.11 28.3207 23.6432C29.9689 21.1765 30.8486 18.2764 30.8486 15.3097C30.844 11.3329 29.2622 7.52025 26.4501 4.70821C23.6381 1.89616 19.8255 0.314324 15.8486 0.309692V0.309692ZM24.5074 10.5597L15.9511 22.1709C15.8501 22.305 15.7234 22.4175 15.5784 22.5021C15.4334 22.5866 15.2731 22.6414 15.1067 22.6633C14.9403 22.6851 14.7712 22.6737 14.6093 22.6295C14.4474 22.5853 14.2959 22.5093 14.1636 22.4059L8.05364 17.5209C7.92544 17.4183 7.8187 17.2915 7.73951 17.1477C7.66033 17.0038 7.61026 16.8458 7.59215 16.6826C7.55558 16.353 7.65144 16.0224 7.85864 15.7634C8.06584 15.5045 8.36741 15.3385 8.697 15.3019C8.8602 15.2838 9.02537 15.2981 9.18307 15.3438C9.34078 15.3895 9.48794 15.4658 9.61614 15.5684L14.7111 19.6447L22.4949 9.08094C22.5886 8.94032 22.7098 8.82017 22.8513 8.72773C22.9927 8.6353 23.1515 8.5725 23.3179 8.54314C23.4843 8.51378 23.6549 8.51846 23.8195 8.55691C23.984 8.59535 24.1391 8.66676 24.2752 8.76682C24.4114 8.86687 24.5259 8.9935 24.6117 9.13904C24.6976 9.28458 24.753 9.44603 24.7747 9.6136C24.7964 9.78118 24.7839 9.95142 24.738 10.114C24.692 10.2766 24.6136 10.4283 24.5074 10.5597Z" fill="#02BD82"/>
</svg>
