<svg width="100" height="101" viewBox="0 0 100 101" fill="none" xmlns="http://www.w3.org/2000/svg">
<g clip-path="url(#clip0_220_4179)">
<rect y="0.109375" width="100" height="100" rx="30" fill="#D8FDE2"/>
<g filter="url(#filter0_d_220_4179)">
<circle cx="50.1864" cy="49.7156" r="14.1865" fill="white"/>
<path fill-rule="evenodd" clip-rule="evenodd" d="M78.0467 55.3833C79.2407 56.0175 80.1617 57.0189 80.8098 58.0203C82.072 60.0898 81.9697 62.6267 80.7416 64.8631L78.3537 68.8687C77.0916 71.005 74.7378 72.3402 72.3158 72.3402C71.1219 72.3402 69.7915 72.0064 68.6999 71.3388C67.8129 70.7713 66.7895 70.5711 65.6979 70.5711C62.3208 70.5711 59.4894 73.3416 59.3871 76.6462C59.3871 80.4848 56.2487 83.489 52.3258 83.489H47.6865C43.7294 83.489 40.591 80.4848 40.591 76.6462C40.5228 73.3416 37.6915 70.5711 34.3143 70.5711C33.1886 70.5711 32.1652 70.7713 31.3124 71.3388C30.2208 72.0064 28.8563 72.3402 27.6964 72.3402C25.2403 72.3402 22.8866 71.005 21.6244 68.8687L19.2706 64.8631C18.0084 62.6934 17.9402 60.0898 19.2024 58.0203C19.7482 57.0189 20.7716 56.0175 21.9314 55.3833C22.8866 54.916 23.5006 54.1482 24.0805 53.247C25.7861 50.3763 24.7628 46.6044 21.8632 44.9021C18.486 42.9994 17.3944 38.7602 19.3388 35.4556L21.6244 31.5168C23.6029 28.2122 27.8329 27.0439 31.2442 28.9799C34.212 30.5822 38.0667 29.514 39.8064 26.6767C40.3522 25.7421 40.6593 24.7407 40.591 23.7393C40.5228 22.4375 40.898 21.2025 41.5462 20.2011C42.8083 18.1315 45.0939 16.7963 47.5841 16.7296H52.394C54.9183 16.7296 57.2039 18.1315 58.4661 20.2011C59.0801 21.2025 59.4894 22.4375 59.3871 23.7393C59.3189 24.7407 59.6259 25.7421 60.1717 26.6767C61.9114 29.514 65.7662 30.5822 68.7681 28.9799C72.1452 27.0439 76.4093 28.2122 78.3537 31.5168L80.6393 35.4556C82.6178 38.7602 81.5262 42.9994 78.1149 44.9021C75.2154 46.6044 74.192 50.3763 75.9317 53.247C76.4775 54.1482 77.0916 54.916 78.0467 55.3833ZM40.3521 50.1422C40.3521 55.3828 44.6844 59.5552 50.0401 59.5552C55.3958 59.5552 59.6257 55.3828 59.6257 50.1422C59.6257 44.9015 55.3958 40.6957 50.0401 40.6957C44.6844 40.6957 40.3521 44.9015 40.3521 50.1422Z" fill="#02BD82"/>
</g>
</g>
<defs>
<filter id="filter0_d_220_4179" x="-8.51477" y="-3.37339" width="117.029" height="120.367" filterUnits="userSpaceOnUse" color-interpolation-filters="sRGB">
<feFlood flood-opacity="0" result="BackgroundImageFix"/>
<feColorMatrix in="SourceAlpha" type="matrix" values="0 0 0 0 0 0 0 0 0 0 0 0 0 0 0 0 0 0 127 0" result="hardAlpha"/>
<feOffset dy="6.70099"/>
<feGaussianBlur stdDeviation="13.402"/>
<feColorMatrix type="matrix" values="0 0 0 0 0.00784314 0 0 0 0 0.741176 0 0 0 0 0.509804 0 0 0 0.5 0"/>
<feBlend mode="normal" in2="BackgroundImageFix" result="effect1_dropShadow_220_4179"/>
<feBlend mode="normal" in="SourceGraphic" in2="effect1_dropShadow_220_4179" result="shape"/>
</filter>
<clipPath id="clip0_220_4179">
<rect width="100" height="100" fill="white" transform="translate(0 0.109375)"/>
</clipPath>
</defs>
</svg>
