<svg width="60" height="34" viewBox="0 0 60 34" fill="none" xmlns="http://www.w3.org/2000/svg">
<rect width="60" height="34" fill="white"/>
<rect width="60" height="34" fill="white"/>
<path d="M15.5064 11.9194H12.5398C12.4416 11.9194 12.3466 11.9544 12.2719 12.0182C12.1972 12.082 12.1478 12.1703 12.1325 12.2673L10.9327 19.8745C10.9271 19.9098 10.9293 19.9458 10.9391 19.9802C10.9489 20.0146 10.966 20.0464 10.9892 20.0735C11.0125 20.1007 11.0413 20.1224 11.0738 20.1373C11.1063 20.1523 11.1416 20.1599 11.1773 20.1599H12.5936C12.6919 20.1599 12.7869 20.1249 12.8616 20.061C12.9363 19.9971 12.9857 19.9087 13.0009 19.8116L13.3245 17.7598C13.3397 17.6628 13.389 17.5744 13.4636 17.5105C13.5382 17.4467 13.6332 17.4115 13.7314 17.4115H14.6705C16.6247 17.4115 17.7525 16.4658 18.047 14.5919C18.1798 13.7721 18.0527 13.1279 17.6688 12.6768C17.2471 12.1814 16.4993 11.9194 15.5064 11.9194ZM15.8486 14.6978C15.6864 15.7623 14.8731 15.7623 14.0866 15.7623H13.639L13.953 13.7743C13.9622 13.7161 13.9919 13.6631 14.0367 13.6249C14.0814 13.5866 14.1384 13.5656 14.1973 13.5656H14.4024C14.9381 13.5656 15.4435 13.5656 15.7046 13.871C15.8604 14.0532 15.9081 14.3239 15.8486 14.6978ZM24.3741 14.6635H22.9535C22.8946 14.6635 22.8376 14.6845 22.7929 14.7228C22.7481 14.761 22.7185 14.814 22.7093 14.8722L22.6464 15.2695L22.547 15.1255C22.2395 14.6791 21.5537 14.5299 20.8692 14.5299C19.2993 14.5299 17.9585 15.7189 17.6974 17.3868C17.5616 18.2187 17.7547 19.0143 18.2266 19.5691C18.6595 20.0792 19.279 20.2918 20.0159 20.2918C21.2808 20.2918 21.9822 19.4784 21.9822 19.4784L21.9189 19.8732C21.9133 19.9085 21.9153 19.9446 21.925 19.979C21.9347 20.0134 21.9516 20.0453 21.9748 20.0725C21.998 20.0997 22.0268 20.1216 22.0592 20.1366C22.0917 20.1516 22.127 20.1594 22.1627 20.1595H23.4423C23.5406 20.1595 23.6357 20.1244 23.7104 20.0606C23.785 19.9967 23.8345 19.9082 23.8497 19.8111L24.6174 14.9489C24.6231 14.9137 24.621 14.8777 24.6114 14.8434C24.6018 14.809 24.5848 14.7772 24.5617 14.75C24.5385 14.7229 24.5098 14.7011 24.4774 14.6862C24.445 14.6712 24.4098 14.6635 24.3741 14.6635ZM22.3939 17.4284C22.2568 18.24 21.6127 18.7848 20.7911 18.7848C20.3786 18.7848 20.0489 18.6525 19.8372 18.4018C19.6273 18.1528 19.5475 17.7984 19.6143 17.4037C19.7422 16.599 20.3972 16.0364 21.2062 16.0364C21.6096 16.0364 21.9376 16.1704 22.1536 16.4233C22.37 16.6788 22.4559 17.0354 22.3939 17.4284ZM31.94 14.6635H30.5125C30.4451 14.6636 30.3789 14.6801 30.3194 14.7117C30.2599 14.7432 30.209 14.7887 30.1711 14.8444L28.2022 17.7446L27.3676 14.9576C27.342 14.8726 27.2897 14.7981 27.2184 14.7451C27.1472 14.6922 27.0608 14.6635 26.972 14.6635H25.5691C25.5298 14.6634 25.4909 14.6727 25.4559 14.6906C25.4208 14.7086 25.3906 14.7346 25.3676 14.7666C25.3446 14.7986 25.3297 14.8356 25.3239 14.8746C25.3181 14.9135 25.3218 14.9533 25.3345 14.9906L26.9069 19.6051L25.4286 21.692C25.4023 21.729 25.3867 21.7725 25.3836 21.8178C25.3804 21.863 25.3897 21.9083 25.4105 21.9486C25.4314 21.9889 25.4629 22.0228 25.5017 22.0463C25.5404 22.0699 25.5849 22.0824 25.6303 22.0824H27.0561C27.1227 22.0825 27.1883 22.0664 27.2473 22.0356C27.3063 22.0048 27.357 21.9601 27.3949 21.9054L32.143 15.0517C32.1688 15.0147 32.1839 14.9712 32.1867 14.9262C32.1895 14.8811 32.1799 14.8362 32.159 14.7962C32.1381 14.7562 32.1066 14.7227 32.068 14.6993C32.0294 14.6759 31.9852 14.6635 31.94 14.6635Z" fill="#253B80"/>
<path d="M36.6666 11.9184H33.6996C33.6015 11.9184 33.5066 11.9535 33.432 12.0173C33.3574 12.0811 33.308 12.1694 33.2927 12.2663L32.0929 19.8734C32.0873 19.9087 32.0894 19.9447 32.0991 19.979C32.1088 20.0134 32.1258 20.0452 32.149 20.0723C32.1722 20.0995 32.2009 20.1213 32.2333 20.1362C32.2657 20.1511 32.301 20.1589 32.3367 20.1589H33.8592C33.9279 20.1588 33.9943 20.1342 34.0465 20.0895C34.0986 20.0448 34.1331 19.9829 34.1438 19.9151L34.4843 17.7588C34.4995 17.6618 34.5488 17.5734 34.6234 17.5095C34.698 17.4456 34.793 17.4105 34.8912 17.4105H35.8299C37.7845 17.4105 38.9119 16.4648 39.2068 14.5909C39.34 13.7711 39.212 13.1269 38.8281 12.6758C38.4069 12.1804 37.6595 11.9184 36.6666 11.9184ZM37.0089 14.6967C36.8471 15.7612 36.0337 15.7612 35.2469 15.7612H34.7997L35.1141 13.7732C35.1232 13.7151 35.1527 13.6621 35.1974 13.6238C35.2421 13.5855 35.2991 13.5645 35.3579 13.5646H35.5631C36.0984 13.5646 36.6042 13.5646 36.8653 13.87C37.021 14.0522 37.0683 14.3228 37.0089 14.6967ZM45.5339 14.6625H44.1141C44.0553 14.6623 43.9983 14.6833 43.9535 14.7216C43.9088 14.7599 43.8793 14.8129 43.8704 14.8711L43.8075 15.2685L43.7077 15.1244C43.4001 14.6781 42.7148 14.5289 42.0303 14.5289C40.4604 14.5289 39.1201 15.7179 38.8589 17.3857C38.7236 18.2177 38.9158 19.0133 39.3877 19.5681C39.8215 20.0782 40.44 20.2907 41.177 20.2907C42.4419 20.2907 43.1433 19.4774 43.1433 19.4774L43.08 19.8721C43.0744 19.9075 43.0765 19.9437 43.0862 19.9781C43.0959 20.0126 43.1129 20.0446 43.1362 20.0718C43.1595 20.099 43.1884 20.1209 43.2209 20.1358C43.2534 20.1508 43.2889 20.1585 43.3247 20.1584H44.6039C44.7021 20.1584 44.797 20.1232 44.8716 20.0594C44.9462 19.9955 44.9956 19.9071 45.0108 19.8101L45.779 14.9479C45.7844 14.9126 45.7822 14.8765 45.7723 14.8421C45.7625 14.8078 45.7454 14.7759 45.7221 14.7488C45.6988 14.7217 45.6699 14.6999 45.6374 14.685C45.605 14.6701 45.5696 14.6624 45.5339 14.6625ZM43.5537 17.4274C43.4175 18.239 42.7725 18.7838 41.9509 18.7838C41.5392 18.7838 41.2087 18.6515 40.997 18.4008C40.7871 18.1518 40.7081 17.7974 40.7741 17.4026C40.9029 16.598 41.557 16.0354 42.366 16.0354C42.7694 16.0354 43.0974 16.1694 43.3134 16.4223C43.5307 16.6778 43.6166 17.0344 43.5537 17.4274ZM47.2087 12.127L45.9911 19.8734C45.9855 19.9087 45.9876 19.9447 45.9973 19.979C46.007 20.0134 46.024 20.0452 46.0472 20.0723C46.0704 20.0995 46.0991 20.1213 46.1315 20.1362C46.1639 20.1511 46.1992 20.1589 46.2349 20.1589H47.459C47.6624 20.1589 47.8351 20.0114 47.8663 19.8105L49.067 12.2038C49.0726 12.1686 49.0705 12.1325 49.0608 12.0982C49.0511 12.0638 49.0341 12.0319 49.0109 12.0048C48.9877 11.9776 48.959 11.9558 48.9266 11.9408C48.8942 11.9258 48.8589 11.918 48.8232 11.918H47.4525C47.3936 11.9182 47.3368 11.9393 47.2921 11.9776C47.2474 12.016 47.2179 12.0689 47.2087 12.127Z" fill="#179BD7"/>
</svg>
